<svg width="81" height="82" viewBox="0 0 81 82" fill="none" xmlns="http://www.w3.org/2000/svg">
<circle cx="38" cy="41" r="12" fill="#FFE200"/>
<path d="M75.4753 1V81H17.592V67.5842M17.592 28.3491V1H67.408" stroke="#878585"/>
<path d="M22.0447 23.963V6.92593H34.2892M22.0447 63.3126V75.0741H61.3756V65.4444H71.0228V6.92593H58.7783" stroke="#878585"/>
<path d="M59.1491 11.3725V1.00217H33.918V11.3725H53.9531" stroke="#878585"/>
<line x1="41.3391" y1="6.76899" x2="51.7284" y2="6.76899" stroke="#878585"/>
<line x1="53.9546" y1="6.76899" x2="55.4388" y2="6.76899" stroke="#878585"/>
<line x1="37.6287" y1="6.76899" x2="39.1129" y2="6.76899" stroke="#878585"/>
<path d="M71.1301 65.5481L61.4985 75.17" stroke="#878585"/>
<path d="M37.1123 38.7799H62.8598V19.5207H29.4656V29.1503" stroke="#878585"/>
<path d="M1 35.271L0.876405 34.7865L0.437016 34.8986L0.505783 35.3468L1 35.271ZM19.3143 27.1203L19.6302 26.7328L19.3143 26.4752L18.9983 26.7328L19.3143 27.1203ZM8.49954 55.9994L8.90503 55.7069L8.49954 55.9994ZM19.3143 65.157L19.0522 65.5828L19.3143 65.7441L19.5763 65.5828L19.3143 65.157ZM30.129 55.9994L30.5345 56.292L30.129 55.9994ZM37.6285 35.271L38.1227 35.3468L38.1915 34.8986L37.7521 34.7865L37.6285 35.271ZM1 35.271C1.12359 35.7555 1.1237 35.7555 1.12386 35.7554C1.12397 35.7554 1.12418 35.7553 1.1244 35.7553C1.12486 35.7552 1.1255 35.755 1.12632 35.7548C1.12796 35.7544 1.13033 35.7538 1.13342 35.753C1.13961 35.7514 1.1487 35.749 1.1606 35.7459C1.1844 35.7398 1.2195 35.7306 1.26533 35.7185C1.357 35.6942 1.49163 35.6582 1.66483 35.6105C2.01121 35.5153 2.51196 35.3739 3.13186 35.1884C4.37133 34.8175 6.08888 34.27 8.0022 33.5631C11.8147 32.1545 16.4587 30.0939 19.6302 27.5078L18.9983 26.7328C15.9613 29.2092 11.4482 31.2239 7.65564 32.6251C5.76647 33.323 4.06956 33.864 2.84519 34.2304C2.23317 34.4135 1.73966 34.5529 1.39976 34.6463C1.22981 34.693 1.0983 34.7283 1.0096 34.7517C0.965258 34.7635 0.931618 34.7722 0.909234 34.7781C0.898043 34.781 0.889665 34.7831 0.884171 34.7845C0.881424 34.7852 0.879397 34.7858 0.8781 34.7861C0.877451 34.7863 0.876985 34.7864 0.876702 34.7865C0.876561 34.7865 0.876487 34.7865 0.876416 34.7865C0.876388 34.7865 0.876405 34.7865 1 35.271ZM8.90503 55.7069C3.64143 48.4109 2.20426 39.8232 1.49422 35.1952L0.505783 35.3468C1.21668 39.9804 2.67752 48.784 8.09405 56.292L8.90503 55.7069ZM19.5763 64.7312C15.6581 62.3194 11.4056 59.173 8.90503 55.7069L8.09405 56.292C10.7148 59.9246 15.1085 63.1554 19.0522 65.5828L19.5763 64.7312ZM19.5763 65.5828C23.52 63.1554 27.9137 59.9246 30.5345 56.292L29.7235 55.7069C27.2229 59.173 22.9704 62.3194 19.0522 64.7312L19.5763 65.5828ZM30.5345 56.292C35.951 48.784 37.4118 39.9804 38.1227 35.3468L37.1343 35.1952C36.4242 39.8232 34.9871 48.4109 29.7235 55.7069L30.5345 56.292ZM37.6285 35.271C37.7521 34.7865 37.7521 34.7865 37.7521 34.7865C37.752 34.7865 37.7519 34.7865 37.7518 34.7865C37.7515 34.7864 37.751 34.7863 37.7504 34.7861C37.7491 34.7858 37.7471 34.7852 37.7443 34.7845C37.7388 34.7831 37.7305 34.781 37.7193 34.7781C37.6969 34.7722 37.6632 34.7635 37.6189 34.7517C37.5302 34.7283 37.3987 34.693 37.2287 34.6463C36.8888 34.5529 36.3953 34.4135 35.7833 34.2304C34.5589 33.864 32.862 33.323 30.9729 32.6251C27.1803 31.2239 22.6672 29.2092 19.6302 26.7328L18.9983 27.5078C22.1698 30.0939 26.8138 32.1545 30.6263 33.5631C32.5396 34.27 34.2572 34.8175 35.4966 35.1884C36.1165 35.3739 36.6173 35.5153 36.9637 35.6105C37.1369 35.6582 37.2715 35.6942 37.3632 35.7185C37.409 35.7306 37.4441 35.7398 37.4679 35.7459C37.4798 35.749 37.4889 35.7514 37.4951 35.753C37.4982 35.7538 37.5005 35.7544 37.5022 35.7548C37.503 35.755 37.5036 35.7552 37.5041 35.7553C37.5043 35.7553 37.5045 35.7554 37.5046 35.7554C37.5048 35.7555 37.5049 35.7555 37.6285 35.271Z" fill="#878585"/>
<path d="M15.4932 45.3202L19.0521 48.8726L25.9995 41.9379" stroke="#878585"/>
<path d="M5.34692 37.8505L5.22333 37.366C4.97403 37.4296 4.81369 37.672 4.85271 37.9263L5.34692 37.8505ZM19.3142 31.6344L19.6301 32.0219C19.7466 31.927 19.8142 31.7847 19.8142 31.6344H19.3142ZM11.0664 53.6589L11.4719 53.3663L11.0664 53.6589ZM19.3142 60.6428L19.0521 61.0686C19.2128 61.1676 19.4155 61.1676 19.5763 61.0686L19.3142 60.6428ZM27.5619 53.6589L27.9674 53.9514L27.5619 53.6589ZM33.2814 37.8505L33.7756 37.9263C33.8146 37.672 33.6543 37.4296 33.405 37.366L33.2814 37.8505ZM19.3142 31.6344H18.8142C18.8142 31.7847 18.8818 31.927 18.9982 32.0219L19.3142 31.6344ZM19.3142 31.6344H19.8142C19.8142 31.4452 19.7074 31.2722 19.5382 31.1874C19.3691 31.1026 19.1665 31.1206 19.015 31.2338L19.3142 31.6344ZM19.3142 31.6344L19.0149 32.035C19.1924 32.1676 19.4359 32.1676 19.6134 32.035L19.3142 31.6344ZM19.3142 31.6344L19.6134 31.2338C19.4618 31.1206 19.2593 31.1026 19.0901 31.1874C18.921 31.2722 18.8142 31.4452 18.8142 31.6344H19.3142ZM5.34692 37.8505C5.47052 38.335 5.47062 38.3349 5.47075 38.3349C5.47084 38.3349 5.47101 38.3348 5.4712 38.3348C5.47156 38.3347 5.47207 38.3346 5.47272 38.3344C5.47401 38.3341 5.47586 38.3336 5.47826 38.333C5.48306 38.3317 5.49007 38.3299 5.49923 38.3275C5.51756 38.3228 5.5445 38.3157 5.57963 38.3064C5.64989 38.2879 5.75293 38.2603 5.88541 38.2238C6.15034 38.151 6.53309 38.0429 7.00679 37.9012C7.95385 37.6178 9.26618 37.1994 10.7282 36.6593C13.6382 35.5842 17.1954 34.0072 19.6301 32.0219L18.9982 31.2469C16.698 33.1225 13.2716 34.6535 10.3817 35.7212C8.94377 36.2525 7.65208 36.6643 6.72012 36.9431C6.25431 37.0825 5.8788 37.1886 5.62034 37.2596C5.49112 37.2951 5.39119 37.3219 5.3239 37.3397C5.29025 37.3486 5.26477 37.3553 5.24787 37.3596C5.23942 37.3618 5.23311 37.3635 5.22901 37.3645C5.22695 37.3651 5.22545 37.3654 5.2245 37.3657C5.22403 37.3658 5.22369 37.3659 5.22349 37.3659C5.2234 37.366 5.22336 37.366 5.22331 37.366C5.2233 37.366 5.22333 37.366 5.34692 37.8505ZM11.4719 53.3663C7.47579 47.8272 6.38255 41.3035 5.84114 37.7746L4.85271 37.9263C5.39497 41.4607 6.51188 48.2003 10.6609 53.9514L11.4719 53.3663ZM19.5763 60.217C16.591 58.3795 13.3647 55.99 11.4719 53.3663L10.6609 53.9514C12.6739 56.7416 16.0415 59.2155 19.0521 61.0686L19.5763 60.217ZM19.5763 61.0686C22.5868 59.2155 25.9545 56.7416 27.9674 53.9514L27.1564 53.3663C25.2636 55.99 22.0373 58.3795 19.0521 60.217L19.5763 61.0686ZM27.9674 53.9514C32.1164 48.2003 33.2334 41.4607 33.7756 37.9263L32.7872 37.7746C32.2458 41.3035 31.1525 47.8272 27.1564 53.3663L27.9674 53.9514ZM33.2814 37.8505C33.405 37.366 33.405 37.366 33.405 37.366C33.405 37.366 33.4049 37.366 33.4048 37.3659C33.4046 37.3659 33.4043 37.3658 33.4038 37.3657C33.4029 37.3654 33.4014 37.3651 33.3993 37.3645C33.3952 37.3635 33.3889 37.3618 33.3805 37.3596C33.3636 37.3553 33.3381 37.3486 33.3044 37.3397C33.2371 37.3219 33.1372 37.2951 33.008 37.2596C32.7495 37.1886 32.374 37.0825 31.9082 36.9431C30.9762 36.6643 29.6846 36.2525 28.2467 35.7212C25.3567 34.6535 21.9304 33.1225 19.6301 31.2469L18.9982 32.0219C21.4329 34.0072 24.9902 35.5842 27.9001 36.6593C29.3622 37.1994 30.6745 37.6178 31.6215 37.9012C32.0952 38.0429 32.478 38.151 32.7429 38.2238C32.8754 38.2603 32.9784 38.2879 33.0487 38.3064C33.0838 38.3157 33.1108 38.3228 33.1291 38.3275C33.1383 38.3299 33.1453 38.3317 33.1501 38.333C33.1525 38.3336 33.1543 38.3341 33.1556 38.3344C33.1563 38.3346 33.1568 38.3347 33.1571 38.3348C33.1573 38.3348 33.1575 38.3349 33.1576 38.3349C33.1577 38.3349 33.1578 38.335 33.2814 37.8505ZM18.8142 31.6344V31.6344H19.8142V31.6344H18.8142ZM19.6134 32.035C19.6214 32.029 19.6278 32.0238 19.6322 32.0202C19.6343 32.0185 19.6361 32.017 19.6371 32.0161C19.6377 32.0156 19.6381 32.0153 19.6384 32.015C19.6385 32.0149 19.6386 32.0148 19.6387 32.0148C19.6387 32.0147 19.6388 32.0147 19.6388 32.0147C19.6388 32.0147 19.6388 32.0147 19.6388 32.0147C19.6388 32.0147 19.6388 32.0147 19.6388 32.0147C19.6388 32.0147 19.6388 32.0147 19.6388 32.0147C19.6388 32.0147 19.6388 32.0147 19.6388 32.0147C19.6393 32.0143 19.6361 32.017 19.6322 32.0202C19.6278 32.0238 19.6214 32.029 19.6134 32.035L19.015 31.2338C19.0069 31.2398 19.0005 31.245 18.9962 31.2486C18.994 31.2503 18.9923 31.2518 18.9912 31.2527C18.9907 31.2532 18.9902 31.2535 18.99 31.2538C18.9898 31.2539 18.9897 31.254 18.9896 31.254C18.9896 31.2541 18.9896 31.2541 18.9896 31.2541C18.9896 31.2541 18.9895 31.2541 18.9895 31.2541C18.9895 31.2541 18.9895 31.2541 18.9895 31.2541C18.9895 31.2541 18.9895 31.2541 18.9895 31.2541C18.9895 31.2541 18.9895 31.2541 18.9895 31.2541C18.989 31.2546 18.9923 31.2518 18.9962 31.2486C19.0005 31.245 19.0069 31.2398 19.0149 31.2338L19.6134 32.035ZM19.6134 31.2338C19.6214 31.2398 19.6278 31.245 19.6322 31.2486C19.636 31.2518 19.6393 31.2546 19.6388 31.2541C19.6388 31.2541 19.6388 31.2541 19.6388 31.2541C19.6388 31.2541 19.6388 31.2541 19.6388 31.2541C19.6388 31.2541 19.6388 31.2541 19.6388 31.2541C19.6388 31.2541 19.6388 31.2541 19.6388 31.2541C19.6388 31.2541 19.6387 31.2541 19.6387 31.254C19.6386 31.254 19.6385 31.2539 19.6384 31.2538C19.6381 31.2535 19.6377 31.2532 19.6371 31.2527C19.636 31.2518 19.6343 31.2503 19.6322 31.2486C19.6278 31.245 19.6214 31.2398 19.6134 31.2338L19.0149 32.035C19.0069 32.029 19.0005 32.0238 18.9961 32.0202C18.9923 32.017 18.989 32.0143 18.9895 32.0147C18.9895 32.0147 18.9895 32.0147 18.9895 32.0147C18.9895 32.0147 18.9895 32.0147 18.9895 32.0147C18.9895 32.0147 18.9895 32.0147 18.9895 32.0147C18.9895 32.0147 18.9895 32.0147 18.9896 32.0147C18.9896 32.0147 18.9896 32.0147 18.9896 32.0148C18.9897 32.0148 18.9898 32.0149 18.9899 32.015C18.9902 32.0153 18.9907 32.0156 18.9912 32.0161C18.9923 32.017 18.994 32.0185 18.9961 32.0202C19.0005 32.0238 19.0069 32.029 19.0149 32.035L19.6134 31.2338ZM18.8142 31.6344V31.6344H19.8142V31.6344H18.8142Z" fill="#878585"/>
<line x1="63.0586" y1="48.4021" x2="56.795" y2="48.4021" stroke="#878585"/>
<line x1="38.425" y1="58.6815" x2="32.1614" y2="58.6815" stroke="#878585"/>
<line x1="52.5615" y1="48.4021" x2="37.6285" y2="48.4021" stroke="#878585"/>
<line x1="62.8599" y1="58.6815" x2="42.2635" y2="58.6815" stroke="#878585"/>
<line x1="63.0586" y1="53.7106" x2="35.5683" y2="53.7106" stroke="#878585"/>
<line x1="52.5615" y1="63.5481" x2="28.5182" y2="63.5481" stroke="#878585"/>
</svg>
