<svg width="81" height="82" viewBox="0 0 81 82" fill="none" xmlns="http://www.w3.org/2000/svg">
<circle cx="35.6665" cy="41" r="12" fill="#FFE200"/>
<path d="M0.666504 16.6702V7.598H9.73866V49.2592L5.20258 58.732L0.666504 49.2592V20.3815" stroke="#878585"/>
<line x1="0.666504" y1="49.1598" x2="9.73866" y2="49.1598" stroke="#878585"/>
<rect x="0.666504" y="7.598" width="9.07216" height="9.07216" stroke="#878585"/>
<line x1="5.11475" y1="49.6598" x2="5.11475" y2="16.6702" stroke="#878585"/>
<path d="M18.811 81V7.598H56.7492M25.409 81H69.945V16.2578L61.2852 7.598V16.2578H66.6461" stroke="#878585"/>
<rect x="23.7593" y="1" width="9.07216" height="6.59793" stroke="#878585"/>
<path d="M23.7593 4.29909V15.0207H29.5325V4.29909" stroke="#878585"/>
<rect x="34.481" y="45.5361" width="19.7938" height="0.824742" fill="#878585"/>
<rect x="25.4087" y="33.1649" width="24.7423" height="0.824742" fill="#878585"/>
<rect width="24.7423" height="0.824742" transform="matrix(-1 0 0 1 63.3467 41.4123)" fill="#878585"/>
<rect x="25.4087" y="37.2885" width="37.9381" height="0.824742" fill="#878585"/>
<rect x="51.8003" y="33.1649" width="11.5464" height="0.824742" fill="#878585"/>
<rect width="11.5464" height="0.824742" transform="matrix(-1 0 0 1 36.9551 41.4123)" fill="#878585"/>
<rect width="14.8454" height="0.824742" transform="matrix(-1 0 0 1 40.2539 66.9794)" fill="#878585"/>
<rect width="10.7216" height="0.824742" transform="matrix(-1 0 0 1 36.1304 70.2783)" fill="#878585"/>
<path d="M54.2748 28.2164V26.5669H34.481V28.2164H50.9758" stroke="#878585"/>
<circle cx="58.3982" cy="68.6288" r="5.77319" stroke="#878585"/>
<path d="M60.1982 64.9175C59.6544 64.6534 59.0438 64.5052 58.3986 64.5052C56.1211 64.5052 54.2749 66.3514 54.2749 68.6289C54.2749 70.9063 56.1211 72.7526 58.3986 72.7526C60.6761 72.7526 62.5223 70.9063 62.5223 68.6289C62.5223 68.2389 62.4682 67.8616 62.367 67.5041M61.6025 66.0325C61.7742 66.2441 61.9254 66.4731 62.053 66.7165" stroke="#878585"/>
</svg>
