<svg width="82" height="80" viewBox="0 0 82 80" fill="none" xmlns="http://www.w3.org/2000/svg">
<circle cx="41" cy="54" r="12" fill="#FFE200"/>
<path d="M1 28.0769V62.3461H58.1429V28.0769L8.79221 28.0769" stroke="#878585"/>
<path d="M58.1428 62.3462H58.6428V61.8462H58.1428V62.3462ZM3.07788 62.3462V61.8462H2.57788V62.3462H3.07788ZM58.1428 73.7693V74.2693H58.6428V73.7693H58.1428ZM35.2856 73.7693H34.7856V74.2693H35.2856V73.7693ZM20.7402 73.7513L20.2402 73.7525H21.2402L20.7402 73.7513ZM6.19476 73.7693L6.19476 74.2693H6.69476V73.7693H6.19476ZM3.07788 73.7693H2.57788V74.2693H3.07788L3.07788 73.7693ZM58.1428 61.8462H3.07788V62.8462H58.1428V61.8462ZM58.6428 73.7693V62.3462H57.6428V73.7693H58.6428ZM35.2856 74.2693L58.1428 74.2693V73.2693L35.2856 73.2693V74.2693ZM28.0129 67C31.7536 67 34.7856 70.031 34.7856 73.7693H35.7856C35.7856 69.4782 32.3054 66 28.0129 66V67ZM21.2402 73.7525C21.2492 70.0219 24.2778 67 28.0129 67V66C23.7268 66 20.2506 69.4678 20.2402 73.7501L21.2402 73.7525ZM13.4675 67C17.2026 67 20.2312 70.0219 20.2402 73.7525L21.2402 73.7501C21.2298 69.4678 17.7536 66 13.4675 66V67ZM6.69476 73.7693C6.69476 70.031 9.72679 67 13.4675 67V66C9.17496 66 5.69476 69.4782 5.69476 73.7693H6.69476ZM3.07788 74.2693L6.19476 74.2693L6.19476 73.2693L3.07788 73.2693L3.07788 74.2693ZM2.57788 62.3462V73.7693H3.57788V62.3462H2.57788Z" fill="#878585"/>
<path d="M19.2013 73.7692C19.2013 76.934 16.6344 79.5 13.4675 79.5C10.3006 79.5 7.73376 76.934 7.73376 73.7692C7.73376 70.6044 10.3006 68.0385 13.4675 68.0385C16.6344 68.0385 19.2013 70.6044 19.2013 73.7692Z" stroke="#878585"/>
<path d="M13.4675 70.6538C11.7461 70.6538 10.3506 72.0486 10.3506 73.7692C10.3506 75.4898 11.7461 76.8846 13.4675 76.8846C15.1889 76.8846 16.5844 75.4898 16.5844 73.7692C16.5844 73.2961 16.4788 72.8476 16.29 72.446" stroke="#878585"/>
<path d="M33.7468 73.7692C33.7468 76.934 31.18 79.5 28.0131 79.5C24.8462 79.5 22.2793 76.934 22.2793 73.7692C22.2793 70.6044 24.8462 68.0385 28.0131 68.0385C31.18 68.0385 33.7468 70.6044 33.7468 73.7692Z" stroke="#878585"/>
<path d="M26.974 70.8311C27.299 70.7163 27.6487 70.6538 28.013 70.6538C29.7344 70.6538 31.1299 72.0486 31.1299 73.7692C31.1299 75.4898 29.7344 76.8846 28.013 76.8846C26.2916 76.8846 24.8961 75.4898 24.8961 73.7692C24.8961 73.4051 24.9586 73.0555 25.0735 72.7307" stroke="#878585"/>
<path d="M58.1428 31.1923L58.4806 30.8236L57.6428 30.056V31.1923H58.1428ZM58.1428 73.7692H57.6428V74.2692H58.1428L58.1428 73.7692ZM62.2986 73.7691L62.2986 74.2691H62.7986V73.7691H62.2986ZM76.8441 73.7691H76.3441V74.2691H76.8441L76.8441 73.7691ZM81 73.7692L81 74.2692H81.5V73.7692H81ZM81 61.3076H81.5V61.0876L81.3377 60.939L81 61.3076ZM74.7662 55.5961L74.29 55.7485L74.3305 55.875L74.4284 55.9647L74.7662 55.5961ZM70.6104 42.6153L71.0865 42.4629L71.0461 42.3364L70.9481 42.2467L70.6104 42.6153ZM58.6428 42.6153V31.1923H57.6428V42.6153H58.6428ZM58.6428 73.7692V42.6153H57.6428V73.7692H58.6428ZM62.2986 73.2691L58.1428 73.2692L58.1428 74.2692L62.2986 74.2691L62.2986 73.2691ZM62.7986 73.7691C62.7986 70.0308 65.8307 66.9999 69.5714 66.9999V65.9999C65.2788 65.9999 61.7986 69.4781 61.7986 73.7691H62.7986ZM69.5714 66.9999C73.3121 66.9999 76.3441 70.0308 76.3441 73.7691H77.3441C77.3441 69.4781 73.8639 65.9999 69.5714 65.9999V66.9999ZM81 73.2692L76.8441 73.2691L76.8441 74.2691L81 74.2692L81 73.2692ZM80.5 61.3076V73.7692H81.5V61.3076H80.5ZM74.4284 55.9647L80.6622 61.6763L81.3377 60.939L75.104 55.2274L74.4284 55.9647ZM70.1342 42.7678L74.29 55.7485L75.2424 55.4436L71.0865 42.4629L70.1342 42.7678ZM57.805 31.5609L70.2726 42.984L70.9481 42.2467L58.4806 30.8236L57.805 31.5609Z" fill="#878585"/>
<path d="M75.3052 73.7692C75.3052 76.934 72.7383 79.5 69.5714 79.5C66.4045 79.5 63.8376 76.934 63.8376 73.7692C63.8376 70.6044 66.4045 68.0385 69.5714 68.0385C72.7383 68.0385 75.3052 70.6044 75.3052 73.7692Z" stroke="#878585"/>
<path d="M72.6884 73.7692C72.6884 72.0486 71.2929 70.6538 69.5715 70.6538C67.8501 70.6538 66.4546 72.0486 66.4546 73.7692C66.4546 75.4898 67.8501 76.8846 69.5715 76.8846C70.3698 76.8846 71.098 76.5846 71.6494 76.0913" stroke="#878585"/>
<rect x="77.8831" y="63.3846" width="3.11688" height="4.15385" stroke="#878585"/>
<path d="M61.7793 46.25V56.1154H75.2858" stroke="#878585"/>
<path d="M58.1428 43.1346L70.6104 43.1346" stroke="#878585"/>
<line x1="61.2598" y1="59.7692" x2="65.4156" y2="59.7692" stroke="#878585"/>
</svg>
