<svg width="82" height="80" viewBox="0 0 82 80" fill="none" xmlns="http://www.w3.org/2000/svg">
<circle cx="42" cy="44.2296" r="12" fill="#FFE200"/>
<mask id="path-2-inside-1_1210_6039" fill="white">
<path fill-rule="evenodd" clip-rule="evenodd" d="M22.8432 64.9167V64.4167H22.851C23.115 55.9151 30.09 49.1042 38.6556 49.1042H45.4701C54.0358 49.1042 61.0108 55.9151 61.2748 64.4167H61.2826V64.9167V69.2917H60.2826V65.4167H23.8432V79H54.4185V80H23.3432H22.8432V79.5V64.9167V64.9167ZM42.0629 64.4167H23.8515C24.1151 56.4675 30.6423 50.1042 38.6556 50.1042H45.4701C53.4835 50.1042 60.0106 56.4675 60.2743 64.4167H42.0629ZM60.2826 74.3959V79.5H61.2826V74.3959H60.2826Z"/>
</mask>
<path d="M22.8432 64.4167V63.4167H21.8432V64.4167H22.8432ZM22.851 64.4167V65.4167H23.8204L23.8505 64.4478L22.851 64.4167ZM61.2748 64.4167L60.2753 64.4478L60.3054 65.4167H61.2748V64.4167ZM61.2826 64.4167H62.2826V63.4167H61.2826V64.4167ZM61.2826 69.2917V70.2917H62.2826V69.2917H61.2826ZM60.2826 69.2917H59.2826V70.2917H60.2826V69.2917ZM60.2826 65.4167H61.2826V64.4167H60.2826V65.4167ZM23.8432 65.4167V64.4167H22.8432V65.4167H23.8432ZM23.8432 79H22.8432V80H23.8432V79ZM54.4185 79H55.4185V78H54.4185V79ZM54.4185 80V81H55.4185V80H54.4185ZM22.8432 80H21.8432V81H22.8432V80ZM23.8515 64.4167L22.852 64.3836L22.8178 65.4167H23.8515V64.4167ZM60.2743 64.4167V65.4167H61.308L61.2738 64.3836L60.2743 64.4167ZM60.2826 79.5H59.2826V80.5H60.2826V79.5ZM60.2826 74.3959V73.3959H59.2826V74.3959H60.2826ZM61.2826 79.5V80.5H62.2826V79.5H61.2826ZM61.2826 74.3959H62.2826V73.3959H61.2826V74.3959ZM23.8432 64.9167V64.4167H21.8432V64.9167H23.8432ZM22.8432 65.4167H22.851V63.4167H22.8432V65.4167ZM23.8505 64.4478C24.0978 56.4844 30.6318 50.1042 38.6556 50.1042V48.1042C29.5481 48.1042 22.1322 55.3458 21.8514 64.3857L23.8505 64.4478ZM38.6556 50.1042H45.4701V48.1042H38.6556V50.1042ZM45.4701 50.1042C53.4939 50.1042 60.028 56.4844 60.2753 64.4478L62.2743 64.3857C61.9936 55.3458 54.5777 48.1042 45.4701 48.1042V50.1042ZM61.2748 65.4167H61.2826V63.4167H61.2748V65.4167ZM60.2826 64.4167V64.9167H62.2826V64.4167H60.2826ZM60.2826 64.9167V69.2917H62.2826V64.9167H60.2826ZM61.2826 68.2917H60.2826V70.2917H61.2826V68.2917ZM61.2826 69.2917V65.4167H59.2826V69.2917H61.2826ZM60.2826 64.4167H23.8432V66.4167H60.2826V64.4167ZM22.8432 65.4167V79H24.8432V65.4167H22.8432ZM23.8432 80H54.4185V78H23.8432V80ZM53.4185 79V80H55.4185V79H53.4185ZM54.4185 79H23.3432V81H54.4185V79ZM23.3432 79H22.8432V81H23.3432V79ZM23.8432 80V79.5H21.8432V80H23.8432ZM23.8432 79.5V64.9167H21.8432V79.5H23.8432ZM23.8432 64.9167V64.9167H21.8432V64.9167H23.8432ZM23.8515 65.4167H42.0629V63.4167H23.8515V65.4167ZM38.6556 49.1042C30.1011 49.1042 23.1335 55.8971 22.852 64.3836L24.8509 64.4499C25.0968 57.0379 31.1835 51.1042 38.6556 51.1042V49.1042ZM45.4701 49.1042H38.6556V51.1042H45.4701V49.1042ZM61.2738 64.3836C60.9923 55.8971 54.0247 49.1042 45.4701 49.1042V51.1042C52.9423 51.1042 59.029 57.0379 59.2749 64.4499L61.2738 64.3836ZM42.0629 65.4167H60.2743V63.4167H42.0629V65.4167ZM61.2826 79.5V74.3959H59.2826V79.5H61.2826ZM61.2826 78.5H60.2826V80.5H61.2826V78.5ZM60.2826 74.3959V79.5H62.2826V74.3959H60.2826ZM60.2826 75.3959H61.2826V73.3959H60.2826V75.3959Z" fill="#878585" mask="url(#path-2-inside-1_1210_6039)"/>
<path d="M28.5189 31.8337V31.3337H28.3371L28.1977 31.4505L28.5189 31.8337ZM30.1732 39.1115L30.6692 39.0486L30.6191 38.6532L30.2225 38.6139L30.1732 39.1115ZM53.9526 39.1115L53.9033 38.6139L53.5067 38.6532L53.4566 39.0486L53.9526 39.1115ZM55.6068 31.8337L55.928 31.4505L55.7887 31.3337H55.6068V31.8337ZM27.5871 35.1151C27.5871 33.8936 28.0969 32.8397 28.8401 32.217L28.1977 31.4505C27.2088 32.2793 26.5871 33.6237 26.5871 35.1151H27.5871ZM30.2225 38.6139C28.8147 38.4744 27.5871 37.03 27.5871 35.1151H26.5871C26.5871 37.4027 28.0751 39.406 30.1239 39.609L30.2225 38.6139ZM42.0629 48.8337C36.1931 48.8337 31.3673 44.5535 30.6692 39.0486L29.6772 39.1744C30.4404 45.193 35.7038 49.8337 42.0629 49.8337V48.8337ZM53.4566 39.0486C52.7585 44.5535 47.9327 48.8337 42.0629 48.8337V49.8337C48.422 49.8337 53.6854 45.193 54.4486 39.1744L53.4566 39.0486ZM56.5387 35.1151C56.5387 37.03 55.3111 38.4744 53.9033 38.6139L54.0019 39.609C56.0507 39.4059 57.5387 37.4027 57.5387 35.1151H56.5387ZM55.2857 32.217C56.0288 32.8397 56.5387 33.8936 56.5387 35.1151H57.5387C57.5387 33.6237 56.9169 32.2793 55.928 31.4505L55.2857 32.217ZM55.6068 31.3337H28.5189V32.3337H55.6068V31.3337Z" fill="#878585"/>
<path d="M6.17749 49.2974V63.917M12.2957 44.9587V63.917" stroke="#878585"/>
<path d="M5.49261 30.5212H5.99261V29.7137L5.26979 30.0736L5.49261 30.5212ZM12.9805 30.521L13.2033 30.0734L12.4805 29.7136V30.521H12.9805ZM12.9805 37.6672L13.2327 38.0989L13.4805 37.9541V37.6672H12.9805ZM9.23655 39.8547L8.98431 40.2864L9.23655 40.4338L9.48879 40.2864L9.23655 39.8547ZM5.49261 37.6672H4.99261V37.9541L5.24038 38.0989L5.49261 37.6672ZM1.5 37.6673C1.5 34.7525 3.20701 32.2175 5.71544 30.9688L5.26979 30.0736C2.44446 31.4801 0.5 34.3484 0.5 37.6673H1.5ZM9.23666 45.1882C4.95122 45.1882 1.5 41.8085 1.5 37.6673H0.5C0.5 42.3857 4.42414 46.1882 9.23666 46.1882V45.1882ZM16.9733 37.6673C16.9733 41.8085 13.5221 45.1882 9.23666 45.1882V46.1882C14.0492 46.1882 17.9733 42.3857 17.9733 37.6673H16.9733ZM12.7577 30.9687C15.2662 32.2174 16.9733 34.7524 16.9733 37.6673H17.9733C17.9733 34.3483 16.0288 31.4799 13.2033 30.0734L12.7577 30.9687ZM12.4805 30.521V37.6672H13.4805V30.521H12.4805ZM12.7283 37.2355L8.98431 39.4229L9.48879 40.2864L13.2327 38.0989L12.7283 37.2355ZM9.48879 39.4229L5.74485 37.2355L5.24038 38.0989L8.98431 40.2864L9.48879 39.4229ZM5.99261 37.6672V30.5212H4.99261V37.6672H5.99261Z" fill="#878585"/>
<path d="M59.2852 38.3962H74.7432L81 40.186V41.6775V43.169L74.7432 44.9587H59.2852V38.3962Z" stroke="#878585"/>
<path d="M72.7634 63.917H67.5219V44.9587H72.7634V59.9679" stroke="#878585"/>
<path d="M29.3335 72.9375V70.75H48.0532V72.9375H32.1607" stroke="#878585"/>
<path d="M51.0484 67.8339V67.3339H50.5484V67.8339H51.0484ZM54.7924 67.8339H55.2924V67.3339H54.7924V67.8339ZM51.0484 69.2924V69.7924H51.5484V69.2924H51.0484ZM48.0533 69.2924V68.7924H47.5533V69.2924H48.0533ZM48.0533 74.3965H47.5533V74.8965H48.0533V74.3965ZM51.0484 74.3965H51.5484V73.8965H51.0484V74.3965ZM51.0484 75.8547H50.5484V76.3547H51.0484V75.8547ZM54.7924 75.8547V76.3547H55.2924V75.8547H54.7924ZM54.7924 74.4179L54.8067 73.9181L54.2924 73.9034V74.4179H54.7924ZM79.5025 75.1256L79.4882 75.6254L80.0025 75.6401V75.1256H79.5025ZM79.5025 68.5631H80.0025V68.0486L79.4882 68.0633L79.5025 68.5631ZM54.7924 69.2708H54.2924V69.7854L54.8067 69.7706L54.7924 69.2708ZM51.0484 68.3339H54.7924V67.3339H51.0484V68.3339ZM51.5484 69.2924V67.8339H50.5484V69.2924H51.5484ZM51.0484 68.7924H48.0533V69.7924H51.0484V68.7924ZM47.5533 69.2924V74.3965H48.5533V69.2924H47.5533ZM48.0533 74.8965H51.0484V73.8965H48.0533V74.8965ZM51.5484 75.8547V74.3965H50.5484V75.8547H51.5484ZM54.7924 75.3547H51.0484V76.3547H54.7924V75.3547ZM54.2924 74.4179V75.8547H55.2924V74.4179H54.2924ZM54.778 74.9177L79.4882 75.6254L79.5168 74.6258L54.8067 73.9181L54.778 74.9177ZM80.0025 75.1256V68.5631H79.0025V75.1256H80.0025ZM79.4882 68.0633L54.778 68.771L54.8067 69.7706L79.5168 69.0629L79.4882 68.0633ZM54.2924 67.8339V69.2708H55.2924V67.8339H54.2924Z" fill="#878585"/>
<line x1="27.336" y1="64.917" x2="27.336" y2="54.7087" stroke="#878585"/>
<line x1="56.5388" y1="64.917" x2="56.5388" y2="54.7087" stroke="#878585"/>
<line x1="32.6881" y1="61.6348" x2="32.6881" y2="50.9643" stroke="#878585"/>
<line y1="-0.5" x2="13.8541" y2="-0.5" transform="matrix(4.48877e-08 -1 -1 -4.25659e-08 51.0484 64.917)" stroke="#878585"/>
<path d="M34.2007 50.3337L42.063 59.0837L50.2996 50.3337" stroke="#878585"/>
<path d="M24.8409 31.8339V26.0006H58.5363V31.8339H28.3942" stroke="#878585"/>
<path d="M48.0532 11.0526H45.8069M38.319 11.0526H36.0726L27.0872 17.9797V26.0005H57.0387V17.9797L50.9482 13.2844" stroke="#878585"/>
<line y1="-0.5" x2="5.22581" y2="-0.5" transform="matrix(0.716432 0.697657 -0.716432 0.697657 27.0872 17.9796)" stroke="#878585"/>
<line y1="-0.5" x2="5.22581" y2="-0.5" transform="matrix(-0.716432 0.697657 0.716432 0.697657 57.0388 17.9796)" stroke="#878585"/>
<path d="M45.0581 15.7921H45.8069V9.22961H38.319V15.7921H39.0678" stroke="#878585"/>
<ellipse cx="42.063" cy="20.8963" rx="2.99515" ry="2.91666" stroke="#878585"/>
<ellipse cx="36.8214" cy="36.2088" rx="0.748788" ry="0.729165" stroke="#878585"/>
<ellipse cx="47.3046" cy="36.2088" rx="0.748788" ry="0.729165" stroke="#878585"/>
<path d="M44.9652 26.0003C46.8068 25.0052 48.0532 23.0924 48.0532 20.8962C48.0532 17.6745 45.3713 15.0629 42.0629 15.0629C38.7546 15.0629 36.0726 17.6745 36.0726 20.8962C36.0726 23.0924 37.319 25.0052 39.1606 26.0003" stroke="#878585"/>
<path d="M39.0679 42.4065C40.0663 43.3787 42.6621 44.7398 45.0582 42.4065" stroke="#878585"/>
<ellipse cx="9.23666" cy="71.2088" rx="8.23666" ry="8.02081" stroke="#878585"/>
<path d="M13.7294 71.2085L11.4831 74.9973L6.99034 74.9973L4.74398 71.2085L6.99034 67.4196L11.4831 67.4196L13.7294 71.2085Z" stroke="#878585"/>
</svg>
