<svg width="81" height="81" viewBox="0 0 81 81" fill="none" xmlns="http://www.w3.org/2000/svg">
<circle cx="38" cy="41" r="12" fill="#FFE200"/>
<path d="M1 47.2131H20.5763V80H1V57.7049" stroke="#878585"/>
<path d="M20.5762 72.1311V72.1311C20.5762 76.477 24.0992 80 28.445 80H58.4045C60.5774 80 62.3389 78.2385 62.3389 76.0655V76.0655C62.3389 73.8926 60.5774 72.1311 58.4045 72.1311H45.3728" stroke="#878585"/>
<path d="M45.3728 64.2623H63.6248C65.7977 64.2623 67.5592 66.0238 67.5592 68.1967V68.1967C67.5592 70.3696 65.7977 72.1311 63.6248 72.1311H45.3728" stroke="#878585"/>
<path d="M45.3728 56.3934H66.235C68.4079 56.3934 70.1694 58.1549 70.1694 60.3279V60.3279C70.1694 62.5008 68.4079 64.2623 66.235 64.2623H45.3728" stroke="#878585"/>
<path d="M31.0168 48.5245H62.3197C64.4926 48.5245 66.2541 50.286 66.2541 52.459V52.459C66.2541 54.6319 64.4926 56.3934 62.3197 56.3934H45.3728" stroke="#878585"/>
<path d="M75.3899 2.62292H37.5425V48.5246M67.5594 80H75.3899V15.7377" stroke="#878585"/>
<line x1="10.6355" y1="47.2131" x2="10.6355" y2="66.8852" stroke="#878585"/>
<line x1="10.6355" y1="70.8196" x2="10.6355" y2="74.7541" stroke="#878585"/>
<path d="M31.6694 48.5246L21.2288 12.459L32.8813 9.1803" stroke="#878585"/>
<path d="M29.7118 41.9672L20.5762 50.4918" stroke="#878585"/>
<path d="M62.3389 45.4597C63.1612 44.2864 63.644 42.8556 63.644 41.3114C63.644 37.3277 60.4303 34.0983 56.4661 34.0983C52.5018 34.0983 49.2881 37.3277 49.2881 41.3114C49.2881 42.8556 49.7709 44.2864 50.5932 45.4597" stroke="#878585"/>
<path d="M68.8645 45.9016V15.0819C64.1662 15.0819 63.6441 11.1475 63.6441 9.1803H49.2882C49.2882 11.1475 48.7662 15.0819 44.0679 15.0819V45.9016" stroke="#878585"/>
<path d="M34.7543 18.206C35.2609 20.1062 35.77 24.0423 31.2318 25.2643L34.7546 38.6885" stroke="#878585"/>
</svg>
