<svg width="82" height="82" viewBox="0 0 82 82" fill="none" xmlns="http://www.w3.org/2000/svg">
<circle cx="41" cy="41" r="12" fill="#FFE200"/>
<path d="M71.7567 81H75C78.3137 81 81 78.3137 81 75V7C81 3.68629 78.3137 1 75 1H40C36.6863 1 34 3.68629 34 7L34 41.5" stroke="#878585"/>
<path d="M56 45V1H45V37" stroke="#878585"/>
<circle cx="71" cy="13" r="5" stroke="#878585"/>
<path d="M76 17.6225C76 20.5924 73.7614 23 71 23C68.2386 23 66 20.5924 66 17.6225C66 16.6703 66.2301 15.7758 66.6339 15" stroke="#878585"/>
<path d="M1 43.7119H23.3729V81H1V55.6441" stroke="#878585"/>
<path d="M23.373 72.0508V72.0508C23.373 76.9933 27.3797 81 32.3222 81H63.6273C66.0985 81 68.1019 78.9967 68.1019 76.5254V76.5254C68.1019 74.0542 66.0985 72.0508 63.6273 72.0508H49.9308" stroke="#878585"/>
<path d="M51.7109 63.1017H69.5923C72.0635 63.1017 74.0669 65.1051 74.0669 67.5763V67.5763C74.0669 70.0476 72.0635 72.0509 69.5923 72.0509H51.7109" stroke="#878585"/>
<path d="M51.7109 54.1525H72.5753C75.0466 54.1525 77.0499 56.1558 77.0499 58.627V58.627C77.0499 61.0983 75.0466 63.1016 72.5753 63.1016H51.7109" stroke="#878585"/>
<path d="M34 45.2034H68.1013C70.5725 45.2034 72.5759 47.2067 72.5759 49.6779V49.6779C72.5759 52.1492 70.5725 54.1525 68.1013 54.1525H50.4335" stroke="#878585"/>
<line x1="11.9414" y1="43.7119" x2="11.9414" y2="66.0847" stroke="#878585"/>
<line x1="11.9414" y1="70.5593" x2="11.9414" y2="75.0338" stroke="#878585"/>
<path d="M33.8137 37.7458L23.373 47.4407" stroke="#878585"/>
</svg>
