<svg width="81" height="82" viewBox="0 0 81 82" fill="none" xmlns="http://www.w3.org/2000/svg">
<circle cx="32" cy="41" r="12" fill="#FFE200"/>
<path d="M63 9V81H9" stroke="#878585"/>
<path d="M1 78H60V1H17.5M17.5 1L1 16.5V67M17.5 1V16.5H6.25" stroke="#878585"/>
<path d="M18.1379 45H11.3735V54.4902H9V58.0952H11.3735V60.7143H9V63.7031H11.3735V67H15.8534L15.8267 63.7031H20.4223V60.7143H15.8534V58.0952H17.7819C19.8389 58.0952 21.4607 57.9925 22.6475 57.3557C23.854 56.719 24.7144 55.8768 25.2286 54.8291C25.7429 53.7815 26 52.662 26 51.4706C26 49.4575 25.3671 47.8758 24.1012 46.7255C22.8551 45.5752 20.8674 45 18.1379 45Z" stroke="#878585"/>
<line x1="43" y1="7.5" x2="54" y2="7.5" stroke="#878585"/>
<line x1="35" y1="45.5" x2="54" y2="45.5" stroke="#878585"/>
<line x1="35" y1="59.5" x2="54" y2="59.5" stroke="#878585"/>
<line x1="26" y1="13.5" x2="54" y2="13.5" stroke="#878585"/>
<line x1="35" y1="52.5" x2="54" y2="52.5" stroke="#878585"/>
<line x1="35" y1="66.5" x2="54" y2="66.5" stroke="#878585"/>
</svg>
