<svg width="82" height="80" viewBox="0 0 82 80" fill="none" xmlns="http://www.w3.org/2000/svg">
<circle cx="41" cy="46" r="12" fill="#FFE200"/>
<path d="M47.9383 11.9336V30.8003H43.4485L31.2038 36.303L37.3261 30.8003H23.8569M19.3672 24.1183V11.9336H42.9743" stroke="#878585"/>
<rect x="7.62231" y="27.5594" width="18.5916" height="23.3694" rx="9.2958" stroke="#878585"/>
<rect x="56.1931" y="27.5594" width="18.5916" height="23.3694" rx="9.2958" stroke="#878585"/>
<path d="M7.53052 37.9837C8.90238 37.8086 11.306 36.9333 12.8026 33.7821C16.1699 36.9333 17.6664 37.9837 25.8976 37.9837" stroke="#878585"/>
<path d="M56.1013 37.9837C57.0241 37.8711 58.2166 37.4686 59.3666 36.3566M61.1863 33.7821C64.7067 36.9333 66.2713 37.9837 74.8766 37.9837" stroke="#878585"/>
<path d="M21.8161 28.7401V28.5961C21.8161 25.891 19.6232 23.6982 16.9182 23.6982C14.2131 23.6982 12.0203 25.891 12.0203 28.5961V28.7401C12.8366 28.32 14.7631 27.4796 16.9182 27.4796C19.0732 27.4796 20.1834 27.8998 21.8161 28.7401Z" stroke="#878585"/>
<path d="M12.8366 50.1684C12.8366 51.849 12.9183 52.9415 11.6122 53.9499C9.97953 55.2104 5.89794 56.4708 4.26531 57.3112C2.63268 58.1515 1.4082 60.2523 1.4082 62.3531C1.4082 64.0338 1.4082 70.3362 1.4082 75.3782" stroke="#878585"/>
<path d="M61.4074 50.1684C61.4074 51.849 61.4891 52.9415 60.183 53.9499C58.5503 55.2104 54.4687 56.4708 52.8361 57.3112C51.2035 58.1515 49.979 60.2523 49.979 62.3531C49.979 64.0338 49.979 74.5378 49.979 79.5798" stroke="#878585"/>
<path d="M21.0008 50.1684C21.0008 51.849 20.9191 52.9415 22.2252 53.9499C23.8579 55.2104 27.9395 56.4708 29.5721 57.3112C31.2047 58.1515 32.4292 60.2523 32.4292 62.3531C32.4292 64.0338 32.4292 74.5378 32.4292 79.5798" stroke="#878585"/>
<path d="M69.5716 50.1684C69.5716 51.849 69.4899 52.9415 70.796 53.9499C72.4287 55.2104 76.5103 56.4708 78.1429 57.3112C79.7755 58.1515 81 60.2523 81 62.3531C81 64.0338 81 74.5378 81 79.5798" stroke="#878585"/>
<path d="M11.2039 54.3701L16.9181 60.2523L22.6323 54.3701" stroke="#878585"/>
<path d="M59.7747 54.3701L65.4889 60.2523L71.2031 54.3701" stroke="#878585"/>
<path d="M16.9182 60.2523V79.5798" stroke="#878585"/>
<path d="M65.489 60.2523V79.5798" stroke="#878585"/>
<path d="M2.22461 59.8322C3.13163 60.9526 4.67356 62.3532 5.62593 64.0338C6.16134 64.9787 6.30619 66.975 6.30619 68.2354C6.30619 69.2438 6.30619 76.0785 6.30619 79.5798" stroke="#878585"/>
<path d="M50.7954 59.8322C51.7024 60.9526 53.2444 62.3532 54.1967 64.0338C54.7321 64.9787 54.877 66.975 54.877 68.2354C54.877 69.2438 54.877 76.0785 54.877 79.5798" stroke="#878585"/>
<path d="M31.6118 59.8322C30.7048 60.9526 29.1629 62.3532 28.2105 64.0338C27.6751 64.9787 27.5302 66.975 27.5302 68.2354C27.5302 69.2438 27.5302 76.0785 27.5302 79.5798" stroke="#878585"/>
<path d="M80.1826 59.8322C79.2756 60.9526 77.7337 62.3532 76.7813 64.0338C76.2459 64.9787 76.101 66.975 76.101 68.2354C76.101 69.2438 76.101 76.0785 76.101 79.5798" stroke="#878585"/>
<line x1="25.0813" y1="18.1562" x2="34.8771" y2="18.1562" stroke="#878585"/>
<line x1="31.6118" y1="21.5175" x2="42.2239" y2="21.5175" stroke="#878585"/>
<line x1="25.0813" y1="24.8788" x2="42.2239" y2="24.8788" stroke="#878585"/>
<line x1="37.3262" y1="18.1562" x2="42.2241" y2="18.1562" stroke="#878585"/>
<line x1="25.0813" y1="21.5175" x2="29.1629" y2="21.5175" stroke="#878585"/>
<path d="M49.3078 49.5584L49.1455 49.0855L48.8827 49.1756L48.8205 49.4464L49.3078 49.5584ZM49.5183 46.1765L49.0208 46.2265L49.0551 46.5679L49.3859 46.6587L49.5183 46.1765ZM54.8768 47.6475L55.0391 48.1204L56.5721 47.5944L55.0092 47.1653L54.8768 47.6475ZM48.8205 49.4464C47.8474 53.679 44.1582 56.8112 39.775 56.8112V57.8112C44.6531 57.8112 48.7242 54.3284 49.7951 49.6704L48.8205 49.4464ZM39.775 56.8112C34.6547 56.8112 30.4792 52.5341 30.4792 47.2273H29.4792C29.4792 53.0589 34.0753 57.8112 39.775 57.8112V56.8112ZM30.4792 47.2273C30.4792 41.9205 34.6547 37.6434 39.775 37.6434V36.6434C34.0753 36.6434 29.4792 41.3957 29.4792 47.2273H30.4792ZM39.775 37.6434C44.5694 37.6434 48.5346 41.3922 49.0208 46.2265L50.0158 46.1265C49.4811 40.81 45.1114 36.6434 39.775 36.6434V37.6434ZM55.0092 47.1653L49.6507 45.6943L49.3859 46.6587L54.7445 48.1296L55.0092 47.1653ZM49.4701 50.0313L55.0391 48.1204L54.7145 47.1745L49.1455 49.0855L49.4701 50.0313Z" fill="#878585"/>
<path d="M39.4124 49.2483L38.6933 41.845H40.8567L40.1375 49.2483H39.4124Z" stroke="#878585"/>
<rect x="39.3669" y="50.9968" width="0.816316" height="0.864335" stroke="#878585" stroke-width="0.816316"/>
<line x1="1" y1="79.5" x2="32.8363" y2="79.5" stroke="#878585"/>
<line x1="49.5708" y1="79.5" x2="76.5092" y2="79.5" stroke="#878585"/>
</svg>
