<svg width="82" height="81" viewBox="0 0 82 81" fill="none" xmlns="http://www.w3.org/2000/svg">
<circle cx="41" cy="48" r="12" fill="#FFE200"/>
<path d="M18.1429 41.5038C21.2988 41.5038 23.8571 38.9185 23.8571 35.7293C23.8571 38.9185 26.4155 41.5038 29.5714 41.5038C32.7273 41.5038 35.2857 38.9185 35.2857 35.7293C35.2857 38.9185 37.8441 41.5038 41 41.5038C44.1559 41.5038 46.7143 38.9185 46.7143 35.7293C46.7143 38.9185 49.2727 41.5038 52.4286 41.5038C55.5845 41.5038 58.1429 38.9185 58.1429 35.7293C58.1429 38.9185 60.7012 41.5038 63.8571 41.5038C67.0131 41.5038 69.5714 38.9185 69.5714 35.7293C69.5714 38.9185 72.1298 41.5038 75.2857 41.5038C78.4416 41.5038 81 38.9185 81 35.7293L67.3636 16H14.6364L1 35.7293C1 38.9185 3.55837 41.5038 6.71429 41.5038C9.8702 41.5038 12.4286 38.9185 12.4286 35.7293C12.4286 38.9185 14.9869 41.5038 18.1429 41.5038Z" stroke="#878585"/>
<path d="M21.0001 22.2556H61.0001L64.6365 28.9925H17.3638L21.0001 22.2556Z" stroke="#878585"/>
<path d="M7.36377 44.391V80H14.6365M74.6365 44.391V80H32.8183V51.609H19.6365V80" stroke="#878585"/>
<path d="M66.4546 54.9774H41.9092V71.3383H66.4546V63.1579" stroke="#878585"/>
</svg>
