<svg width="81" height="81" viewBox="0 0 81 81" fill="none" xmlns="http://www.w3.org/2000/svg">
<circle cx="38" cy="41" r="12" fill="#FFE200"/>
<path d="M1 47.2131H20.5763V80H1V57.7049" stroke="#878585"/>
<path d="M20.5762 72.1312V72.1312C20.5762 76.477 24.0992 80 28.445 80H58.4045C60.5774 80 62.3389 78.2385 62.3389 76.0656V76.0656C62.3389 73.8927 60.5774 72.1312 58.4045 72.1312H45.3728" stroke="#878585"/>
<path d="M45.373 64.2623H63.6251C65.798 64.2623 67.5595 66.0238 67.5595 68.1967V68.1967C67.5595 70.3696 65.798 72.1312 63.6251 72.1312H45.373" stroke="#878585"/>
<path d="M45.373 56.3935H66.2352C68.4082 56.3935 70.1697 58.155 70.1697 60.3279V60.3279C70.1697 62.5008 68.4082 64.2623 66.2352 64.2623H45.373" stroke="#878585"/>
<path d="M31.0171 48.5246H62.32C64.4929 48.5246 66.2544 50.2861 66.2544 52.459V52.459C66.2544 54.6319 64.4929 56.3934 62.32 56.3934H45.373" stroke="#878585"/>
<path d="M75.3899 2.62296H37.5425V48.5246M67.5594 80H75.3899V15.7377" stroke="#878585"/>
<line x1="10.6357" y1="47.2131" x2="10.6357" y2="66.8853" stroke="#878585"/>
<line x1="10.6357" y1="70.8197" x2="10.6357" y2="74.7541" stroke="#878585"/>
<path d="M31.6697 48.5246L21.229 12.459L32.8815 9.18033" stroke="#878585"/>
<path d="M29.7118 41.9672L20.5762 50.4918" stroke="#878585"/>
<path d="M62.3389 45.4598C63.1612 44.2864 63.644 42.8556 63.644 41.3115C63.644 37.3278 60.4303 34.0984 56.4661 34.0984C52.5018 34.0984 49.2881 37.3278 49.2881 41.3115C49.2881 42.8556 49.7709 44.2864 50.5932 45.4598" stroke="#878585"/>
<path d="M68.8645 45.9016V15.082C64.1662 15.082 63.6441 11.1475 63.6441 9.18033H49.2882C49.2882 11.1475 48.7662 15.082 44.0679 15.082V45.9016" stroke="#878585"/>
<path d="M34.7545 18.206C35.2612 20.1062 35.7703 24.0423 31.2321 25.2643L34.7549 38.6885" stroke="#878585"/>
</svg>
