<svg width="46" height="39" viewBox="0 0 46 39" fill="none" xmlns="http://www.w3.org/2000/svg">
<path fill-rule="evenodd" clip-rule="evenodd" d="M2 0C0.895431 0 0 0.89543 0 2V19C0 20.1046 0.895433 21 2 21H13.3473C13.2177 27.2895 11.4576 29.3967 10.1842 30.2548C8.67594 31.2712 6.65986 31.4652 3.96833 31.4952C3.41608 31.5013 2.96774 31.9477 2.96774 32.5V38C2.96774 38.5523 3.41506 39 3.96735 39L5.93548 39H5.95386C7.44523 39 10.5827 39.0001 14.2997 36.4952C18.4095 33.7255 20.6333 28.7007 20.7677 21H20.7742V20.25V2C20.7742 0.895431 19.8788 0 18.7742 0H2Z" fill="#FFE200"/>
<path fill-rule="evenodd" clip-rule="evenodd" d="M27.2256 0C26.121 0 25.2256 0.89543 25.2256 2V19C25.2256 20.1046 26.121 21 27.2256 21H38.5731C38.4435 27.2895 36.6834 29.3967 35.41 30.2548C33.9018 31.2712 31.8857 31.4652 29.1941 31.4952C28.6419 31.5013 28.1935 31.9477 28.1935 32.5V38C28.1935 38.5523 28.6409 39 29.1932 39L31.1613 39H31.1797C32.671 39 35.8085 39.0001 39.5255 36.4952C43.6353 33.7255 45.8591 28.7007 45.9935 21H45.9998V20.3898C45.9999 20.3433 46 20.2967 46 20.25H45.9998V2C45.9998 0.895431 45.1043 0 43.9998 0H27.2256Z" fill="#FFE200"/>
</svg>
