<svg width="24" height="20" viewBox="0 0 24 20" fill="none" xmlns="http://www.w3.org/2000/svg">
<path fill-rule="evenodd" clip-rule="evenodd" d="M22 20C23.1046 20 24 19.1046 24 18V11.2308C24 10.1262 23.1046 9.23077 22 9.23077H17.1552C17.2217 6.0054 18.1243 4.92479 18.7773 4.48471C19.457 4.02666 20.3378 3.8943 21.4781 3.85852C22.0301 3.8412 22.4781 3.39844 22.4781 2.84615V1C22.4781 0.447716 22.0301 2.67029e-05 21.4778 3.24249e-05L20.9561 0H20.9467C20.1819 -2.28882e-05 18.573 -6.86646e-05 16.6668 1.28452C14.5592 2.70487 13.4188 5.28171 13.3499 9.23077H13.3466V9.58825C13.3466 9.59729 13.3466 9.60633 13.3466 9.61539H13.3466V18C13.3466 19.1046 14.242 20 15.3466 20H22Z" fill="#FFE200"/>
<path fill-rule="evenodd" clip-rule="evenodd" d="M9.06396 20C10.1685 20 11.064 19.1046 11.064 18V11.2308C11.064 10.1262 10.1685 9.23077 9.06397 9.23077H4.21904C4.28547 6.0054 5.18811 4.92479 5.84113 4.48471C6.52082 4.02666 7.40162 3.8943 8.54187 3.85852C9.09388 3.8412 9.54187 3.39844 9.54187 2.84615V1C9.54187 0.447716 9.09394 2.67029e-05 8.54165 3.24249e-05L8.01995 0H8.01053C7.24572 -2.28882e-05 5.63677 -6.86646e-05 3.73061 1.28452C1.62299 2.70487 0.482585 5.28171 0.413674 9.23077H0.410533V9.52529C0.410414 9.55524 0.410354 9.58528 0.410354 9.61539H0.410533V18C0.410533 19.1046 1.30596 20 2.41053 20H9.06396Z" fill="#FFE200"/>
</svg>
